<svg width="17" height="16" viewBox="0 0 17 16" fill="none" xmlns="http://www.w3.org/2000/svg">
<g id="Iconly/Light/Delete">
<g id="Delete">
<path id="Stroke 1" d="M13.3833 6.3125C13.3833 6.3125 13.0213 10.8025 12.8113 12.6938C12.7113 13.5972 12.1533 14.1265 11.2393 14.1432C9.49994 14.1745 7.75861 14.1765 6.01994 14.1398C5.14061 14.1218 4.59194 13.5858 4.49394 12.6985C4.28261 10.7905 3.92261 6.3125 3.92261 6.3125" stroke="white" stroke-linecap="round" stroke-linejoin="round"/>
<path id="Stroke 3" d="M14.3053 4.16024H3" stroke="white" stroke-linecap="round" stroke-linejoin="round"/>
<path id="Stroke 5" d="M12.1271 4.15998C11.6038 4.15998 11.1531 3.78998 11.0505 3.27732L10.8885 2.46665C10.7885 2.09265 10.4498 1.83398 10.0638 1.83398H7.2418C6.8558 1.83398 6.51713 2.09265 6.41713 2.46665L6.25513 3.27732C6.15247 3.78998 5.7018 4.15998 5.17847 4.15998" stroke="white" stroke-linecap="round" stroke-linejoin="round"/>
</g>
</g>
</svg>
