<svg width="16" height="16" viewBox="0 0 16 16" fill="none" xmlns="http://www.w3.org/2000/svg">
<g id="Iconly/Light/Graph" opacity="0.88">
<g id="Graph">
<path id="Stroke 1" fill-rule="evenodd" clip-rule="evenodd" d="M11.5187 9.25943C11.9685 9.25943 12.3461 9.63066 12.2773 10.0749C11.8738 12.6882 9.63661 14.6286 6.93836 14.6286C3.9531 14.6286 1.53345 12.2089 1.53345 9.22434C1.53345 6.76539 3.40152 4.47487 5.50468 3.95697C5.95661 3.84539 6.41976 4.16329 6.41976 4.62855C6.41976 7.78083 6.52573 8.59627 7.12432 9.03978C7.72292 9.48329 8.42678 9.25943 11.5187 9.25943Z" stroke="white" stroke-linecap="round" stroke-linejoin="round"/>
<path id="Stroke 3" fill-rule="evenodd" clip-rule="evenodd" d="M14.4617 6.63436C14.4975 4.6091 12.0097 1.34454 8.97816 1.40068C8.74237 1.40489 8.5536 1.60138 8.54308 1.83647C8.46659 3.50173 8.56974 5.65963 8.62729 6.63787C8.64483 6.94243 8.88413 7.18173 9.18799 7.19927C10.1936 7.25682 12.4301 7.33541 14.0715 7.08699C14.2947 7.05331 14.4582 6.85963 14.4617 6.63436Z" stroke="white" stroke-linecap="round" stroke-linejoin="round"/>
</g>
</g>
</svg>
