<svg width="237" height="44" viewBox="0 0 237 44" fill="none" xmlns="http://www.w3.org/2000/svg">
<path d="M52.5938 18.1363L40.7352 1.90385C39.8517 0.690611 38.4891 0 36.9897 0C35.4902 0 34.1277 0.690611 33.2442 1.90385L31.9501 3.67081L30.6622 1.90385C29.7787 0.690611 28.4161 0 26.9167 0C25.4173 0 24.0547 0.690611 23.1712 1.90385L21.8958 3.64593L20.6203 1.90385C19.7368 0.690611 18.3681 0 16.8749 0C15.3816 0 14.0129 0.690611 13.1294 1.90385L1.26456 18.1363C-0.421521 20.4446 -0.421521 23.5492 1.26456 25.8637L13.1294 42.0962C14.0129 43.3032 15.3754 44 16.8749 44C18.3743 44 19.7368 43.3094 20.6203 42.0962L26.9292 33.4542L28.2295 35.2398C28.2357 35.246 28.2419 35.2523 28.2419 35.2585L33.238 42.0962C34.1215 43.3032 35.484 44 36.9835 44C38.4829 44 39.8454 43.3094 40.7289 42.0962L52.5875 25.8637C54.2861 23.5492 54.2861 20.4446 52.5938 18.1363ZM25.0626 3.28507C25.4982 2.68778 26.1763 2.34559 26.9167 2.34559C27.6571 2.34559 28.3353 2.68778 28.7708 3.28507L30.5004 5.65554L26.9292 10.5396L23.3454 5.63066L25.0626 3.28507ZM18.7289 40.7087C18.2934 41.306 17.6152 41.6482 16.8749 41.6482C16.1345 41.6482 15.4563 41.306 15.0208 40.7087L3.16219 24.4762C2.07961 22.9955 2.07961 20.9983 3.16219 19.5175L15.0208 3.28507C15.4563 2.68778 16.1345 2.34559 16.8749 2.34559C17.6152 2.34559 18.2934 2.68778 18.7289 3.28507L20.4461 5.63688L11.3126 18.1363C9.62656 20.4446 9.62656 23.5492 11.3189 25.8637L12.0157 26.8032L18.1379 35.2336C18.9156 36.3037 20.0728 36.9632 21.3607 37.1063L18.7289 40.7087ZM23.7374 33.8586C23.2957 34.4559 22.6237 34.7981 21.8833 34.7981C21.143 34.7981 20.4648 34.4559 20.0293 33.8586L13.7329 25.1855H13.7267L13.1978 24.47C12.1152 22.9893 12.1152 20.9921 13.1978 19.5113L21.8896 7.61538L25.4733 12.5243L21.3794 18.1301C19.6933 20.4383 19.6933 23.543 21.3794 25.8575L25.4733 31.4632L23.7374 33.8586ZM26.9292 14.5153L30.5875 19.5175C31.6701 20.9983 31.6701 22.9955 30.5875 24.4762L26.9292 29.4785L23.2708 24.4762C22.1882 22.9955 22.1882 20.9983 23.2708 19.5175L26.9292 14.5153ZM32.4789 25.8575C34.165 23.5492 34.165 20.4446 32.4789 18.1301L28.385 12.5243L31.9563 7.64027L40.6294 19.5175C41.712 20.9983 41.712 22.9955 40.6232 24.4825L39.2357 26.4112L33.8353 33.8524C33.3997 34.4497 32.7216 34.7919 31.9812 34.7919C31.247 34.7919 30.5813 34.4559 30.1396 33.871L28.3788 31.4632L32.4789 25.8575ZM50.7023 24.4762L38.8438 40.7087C38.4082 41.306 37.7301 41.6482 36.9897 41.6482C36.2493 41.6482 35.5711 41.306 35.1356 40.7087L32.5038 37.1063C33.7917 36.9632 34.949 36.2975 35.7267 35.2274L40.3681 28.8377L40.3743 28.8439L41.1333 27.7862L42.023 26.5605L42.0168 26.5543L42.5208 25.8512C44.2069 23.543 44.2069 20.4383 42.5208 18.1239L33.406 5.65554L35.1356 3.28507C35.5711 2.68778 36.2493 2.34559 36.9897 2.34559C37.7301 2.34559 38.4082 2.68778 38.8438 3.28507L50.7023 19.5175C51.7849 21.0045 51.7849 22.9955 50.7023 24.4762Z" fill="url(#paint0_linear)"/>
<path opacity="0.4" d="M21.8774 37.1375C21.6969 37.1375 21.5227 37.125 21.3423 37.1064L18.7976 40.6154L20.7201 41.9717L25.374 35.582C24.4967 36.5775 23.2275 37.1375 21.8774 37.1375Z" fill="url(#paint1_linear)"/>
<path opacity="0.4" d="M31.9688 37.1373C32.1492 37.1373 32.3234 37.1249 32.5039 37.1062L35.0485 40.6153L33.126 41.9716L28.4971 35.5881C29.3743 36.5836 30.6249 37.1373 31.9688 37.1373Z" fill="url(#paint2_linear)"/>
<path opacity="0.4" d="M25.461 31.4507L26.9418 33.4727L24.6895 36.4965L23.2087 34.5304L25.461 31.4507Z" fill="url(#paint3_linear)"/>
<path opacity="0.6" d="M20.4395 5.63037L21.9016 7.63376L16.6256 14.8758L14.7839 13.42L20.4395 5.63037Z" fill="url(#paint4_linear)"/>
<path opacity="0.6" d="M25.4853 12.5242L26.9225 14.5276L23.5628 19.1752L21.7212 17.7131L25.4853 12.5242Z" fill="url(#paint5_linear)"/>
<path opacity="0.6" d="M30.5008 5.65552L31.9505 7.64647L28.3855 12.5243L26.9358 10.5333L30.5008 5.65552Z" fill="url(#paint6_linear)"/>
<path d="M75.6063 25.8912H74.5479L80.7975 16.1304H83.0319V27H80.7975V19.104L81.3351 19.2552L76.3455 27H73.8423L68.8527 19.2888L69.3903 19.1376V27H67.1559V16.1304H69.3903L75.6063 25.8912ZM88.9897 24.6312V22.7664H96.1801V24.6312H88.9897ZM86.2849 27L91.3921 16.1304H93.8113L98.9689 27H96.5329L92.0641 17.2056H93.1393L88.7041 27H86.2849ZM104.195 20.616H112.813V22.4808H104.195V20.616ZM112.444 16.1304H114.678V27H112.444V16.1304ZM102.229 16.1304H104.464V27H102.229V16.1304ZM120.634 24.6312V22.7664H127.825V24.6312H120.634ZM117.929 27L123.037 16.1304H125.456L130.613 27H128.177L123.709 17.2056H124.784L120.349 27H117.929ZM131.538 16.1304H142.995V17.9952H131.538V16.1304ZM136.158 17.76H138.392V27H136.158V17.76ZM146.3 27V16.1304H153.675C154.515 16.1304 155.243 16.248 155.859 16.4832C156.486 16.7072 156.973 17.0656 157.32 17.5584C157.668 18.04 157.841 18.6616 157.841 19.4232C157.841 19.9384 157.752 20.3752 157.572 20.7336C157.393 21.092 157.141 21.3832 156.816 21.6072C156.503 21.8312 156.139 22.0048 155.724 22.128C155.31 22.24 154.868 22.3128 154.397 22.3464L154.162 22.212C154.946 22.2232 155.59 22.2904 156.094 22.4136C156.598 22.5256 156.973 22.7384 157.22 23.052C157.477 23.3544 157.606 23.808 157.606 24.4128V27H155.372V24.564C155.372 24.1496 155.299 23.8304 155.153 23.6064C155.008 23.3712 154.744 23.2088 154.364 23.1192C153.994 23.0296 153.456 22.9848 152.751 22.9848H148.534V27H146.3ZM148.534 21.2376H153.675C154.302 21.2376 154.778 21.0864 155.103 20.784C155.439 20.4816 155.607 20.0728 155.607 19.5576C155.607 19.0648 155.439 18.6896 155.103 18.432C154.778 18.1744 154.302 18.0456 153.675 18.0456H148.534V21.2376ZM163.556 24.6312V22.7664H170.747V24.6312H163.556ZM160.851 27L165.959 16.1304H168.378L173.535 27H171.099L166.631 17.2056H167.706L163.271 27H160.851ZM188.922 23.0856C188.821 23.9592 188.513 24.704 187.998 25.32C187.483 25.936 186.783 26.4064 185.898 26.7312C185.013 27.056 183.96 27.2184 182.739 27.2184C181.72 27.2184 180.785 27.1008 179.934 26.8656C179.094 26.6304 178.366 26.2776 177.75 25.8072C177.145 25.3368 176.675 24.7544 176.339 24.06C176.003 23.3544 175.835 22.5312 175.835 21.5904C175.835 20.6496 176.003 19.8264 176.339 19.1208C176.675 18.4152 177.145 17.8272 177.75 17.3568C178.366 16.8752 179.094 16.5168 179.934 16.2816C180.785 16.0352 181.72 15.912 182.739 15.912C183.96 15.912 185.013 16.08 185.898 16.416C186.794 16.752 187.499 17.2336 188.015 17.8608C188.53 18.4768 188.832 19.2272 188.922 20.112H186.704C186.559 19.6416 186.312 19.2384 185.965 18.9024C185.629 18.5552 185.192 18.292 184.655 18.1128C184.117 17.9336 183.479 17.844 182.739 17.844C181.821 17.844 181.015 17.9896 180.32 18.2808C179.626 18.5608 179.088 18.9808 178.707 19.5408C178.327 20.0896 178.136 20.7728 178.136 21.5904C178.136 22.3968 178.327 23.0744 178.707 23.6232C179.088 24.172 179.626 24.592 180.32 24.8832C181.015 25.1632 181.821 25.3032 182.739 25.3032C183.479 25.3032 184.111 25.2136 184.638 25.0344C185.175 24.8552 185.612 24.5976 185.948 24.2616C186.295 23.9256 186.547 23.5336 186.704 23.0856H188.922ZM197.435 21.708L197.419 20.7672L204.743 27H201.518L194.999 21.288L200.795 16.1304H203.971L197.435 21.708ZM192.782 16.1304H195.016V27H192.782V16.1304ZM210.379 22.464V25.1352H218.762V27H208.145V16.1304H218.745V17.9952H210.379V20.7H217.233V22.464H210.379ZM222.736 27V16.1304H230.112C230.952 16.1304 231.68 16.248 232.296 16.4832C232.923 16.7072 233.41 17.0656 233.757 17.5584C234.104 18.04 234.278 18.6616 234.278 19.4232C234.278 19.9384 234.188 20.3752 234.009 20.7336C233.83 21.092 233.578 21.3832 233.253 21.6072C232.94 21.8312 232.576 22.0048 232.161 22.128C231.747 22.24 231.304 22.3128 230.834 22.3464L230.599 22.212C231.383 22.2232 232.027 22.2904 232.531 22.4136C233.035 22.5256 233.41 22.7384 233.656 23.052C233.914 23.3544 234.043 23.808 234.043 24.4128V27H231.808V24.564C231.808 24.1496 231.736 23.8304 231.59 23.6064C231.444 23.3712 231.181 23.2088 230.8 23.1192C230.431 23.0296 229.893 22.9848 229.188 22.9848H224.971V27H222.736ZM224.971 21.2376H230.112C230.739 21.2376 231.215 21.0864 231.54 20.784C231.876 20.4816 232.044 20.0728 232.044 19.5576C232.044 19.0648 231.876 18.6896 231.54 18.432C231.215 18.1744 230.739 18.0456 230.112 18.0456H224.971V21.2376Z" fill="white"/>
<defs>
<linearGradient id="paint0_linear" x1="9.941" y1="38.9885" x2="43.9217" y2="5.0078" gradientUnits="userSpaceOnUse">
<stop stop-color="#FF8506"/>
<stop offset="0.5805" stop-color="#FD3947"/>
<stop offset="1" stop-color="#FB0078"/>
</linearGradient>
<linearGradient id="paint1_linear" x1="23.9018" y1="35.5344" x2="19.9324" y2="41.152" gradientUnits="userSpaceOnUse">
<stop stop-color="#78005B"/>
<stop offset="0.3483" stop-color="#7A025A" stop-opacity="0.6517"/>
<stop offset="0.51" stop-color="#820955" stop-opacity="0.49"/>
<stop offset="0.6332" stop-color="#8E154E" stop-opacity="0.3668"/>
<stop offset="0.7369" stop-color="#A12643" stop-opacity="0.2631"/>
<stop offset="0.8283" stop-color="#B83C36" stop-opacity="0.1717"/>
<stop offset="0.9111" stop-color="#D65725" stop-opacity="0.0889"/>
<stop offset="0.9857" stop-color="#F87711" stop-opacity="0.0143"/>
<stop offset="1" stop-color="#FF7E0D" stop-opacity="0"/>
</linearGradient>
<linearGradient id="paint2_linear" x1="33.6001" y1="40.7338" x2="29.864" y2="35.36" gradientUnits="userSpaceOnUse">
<stop stop-color="#FF7E0D" stop-opacity="0"/>
<stop offset="0.00928743" stop-color="#F97811" stop-opacity="0.0127"/>
<stop offset="0.0651" stop-color="#D65825" stop-opacity="0.0888"/>
<stop offset="0.1269" stop-color="#B93D36" stop-opacity="0.1729"/>
<stop offset="0.1949" stop-color="#A12643" stop-opacity="0.2657"/>
<stop offset="0.272" stop-color="#8F154E" stop-opacity="0.3707"/>
<stop offset="0.3632" stop-color="#820955" stop-opacity="0.495"/>
<stop offset="0.4822" stop-color="#7A025A" stop-opacity="0.6573"/>
<stop offset="0.7336" stop-color="#78005B"/>
</linearGradient>
<linearGradient id="paint3_linear" x1="24.0315" y1="35.5056" x2="27.0526" y2="31.1603" gradientUnits="userSpaceOnUse">
<stop stop-color="#FF7E0D" stop-opacity="0"/>
<stop offset="0.0133" stop-color="#F97910" stop-opacity="0.0192"/>
<stop offset="0.1144" stop-color="#D25427" stop-opacity="0.1659"/>
<stop offset="0.219" stop-color="#B1363A" stop-opacity="0.3175"/>
<stop offset="0.3263" stop-color="#981E48" stop-opacity="0.4731"/>
<stop offset="0.4375" stop-color="#860D53" stop-opacity="0.6344"/>
<stop offset="0.5551" stop-color="#7B0359" stop-opacity="0.8048"/>
<stop offset="0.6897" stop-color="#78005B"/>
</linearGradient>
<linearGradient id="paint4_linear" x1="15.0769" y1="13.7115" x2="21.7994" y2="6.98894" gradientUnits="userSpaceOnUse">
<stop stop-color="#FF4630" stop-opacity="0"/>
<stop offset="0.5722" stop-color="#B31F48" stop-opacity="0.5722"/>
<stop offset="1" stop-color="#78005B"/>
</linearGradient>
<linearGradient id="paint5_linear" x1="22.1869" y1="18.1836" x2="26.6648" y2="13.7057" gradientUnits="userSpaceOnUse">
<stop stop-color="#FF4630" stop-opacity="0"/>
<stop offset="0.5722" stop-color="#B31F48" stop-opacity="0.5722"/>
<stop offset="1" stop-color="#78005B"/>
</linearGradient>
<linearGradient id="paint6_linear" x1="27.1988" y1="11.334" x2="31.6914" y2="6.84132" gradientUnits="userSpaceOnUse">
<stop stop-color="#FF4630" stop-opacity="0"/>
<stop offset="0.5722" stop-color="#B31F48" stop-opacity="0.5722"/>
<stop offset="1" stop-color="#78005B"/>
</linearGradient>
</defs>
</svg>
