<svg width="16" height="16" viewBox="0 0 16 16" fill="none" xmlns="http://www.w3.org/2000/svg">
<path fill-rule="evenodd" clip-rule="evenodd" d="M3.99992 7.99935C3.99992 8.73573 3.40297 9.33268 2.66659 9.33268C1.93021 9.33268 1.33325 8.73573 1.33325 7.99935C1.33325 7.26297 1.93021 6.66602 2.66659 6.66602C3.40297 6.66602 3.99992 7.26297 3.99992 7.99935ZM9.33325 7.99935C9.33325 8.73573 8.7363 9.33268 7.99992 9.33268C7.26354 9.33268 6.66659 8.73573 6.66659 7.99935C6.66659 7.26297 7.26354 6.66602 7.99992 6.66602C8.7363 6.66602 9.33325 7.26297 9.33325 7.99935ZM13.3333 9.33268C14.0696 9.33268 14.6666 8.73573 14.6666 7.99935C14.6666 7.26297 14.0696 6.66602 13.3333 6.66602C12.5969 6.66602 11.9999 7.26297 11.9999 7.99935C11.9999 8.73573 12.5969 9.33268 13.3333 9.33268Z" fill="white" fill-opacity="0.88"/>
</svg>
