<svg width="24" height="24" viewBox="0 0 24 24" fill="none" xmlns="http://www.w3.org/2000/svg">
<circle cx="12" cy="12" r="12" fill="white" fill-opacity="0.88"/>
<path d="M9.49091 16.8556C9.52014 16.3878 9.54727 15.935 9.5765 15.4827C9.60782 14.9955 9.6448 14.5086 9.67074 14.0211C9.6782 13.8828 9.72264 13.7837 9.82791 13.6891C11.5845 12.1107 13.3375 10.5282 15.0911 8.94627C15.1203 8.92 15.1567 8.89821 15.177 8.86627C15.2167 8.80417 15.2471 8.73611 15.2817 8.67073C15.1997 8.65431 15.1114 8.61102 15.0368 8.62774C14.9309 8.65162 14.8298 8.71103 14.7359 8.77014C12.5514 10.1497 10.3677 11.5301 8.18615 12.9144C8.07222 12.9866 7.97679 13.0034 7.84497 12.9604C6.9294 12.6627 6.01055 12.3755 5.09379 12.0815C4.98821 12.0477 4.88114 12.0057 4.78869 11.9459C4.5844 11.814 4.5513 11.6107 4.73621 11.4561C4.90441 11.3154 5.10392 11.1984 5.30791 11.1166C6.18084 10.767 7.06062 10.4345 7.93772 10.0956C10.841 8.97434 13.7443 7.85304 16.6479 6.73294C16.7311 6.701 16.817 6.66816 16.9043 6.65681C17.2488 6.61233 17.5285 6.81593 17.5372 7.16731C17.5441 7.44853 17.4939 7.73542 17.4355 8.01276C16.814 10.9635 16.1865 13.9127 15.5584 16.8622C15.4129 17.545 14.9494 17.713 14.3825 17.2939C13.4314 16.5905 12.4807 15.8869 11.5201 15.1758C11.4819 15.2083 11.4434 15.2379 11.4088 15.2716C10.9499 15.717 10.4912 16.1625 10.0331 16.6091C9.88935 16.75 9.73128 16.8586 9.49091 16.8556Z" fill="#1F1E1E"/>
</svg>
