<svg width="24" height="24" viewBox="0 0 24 24" fill="none" xmlns="http://www.w3.org/2000/svg">
<g id="Iconly/Light/3 User">
<g id="3 User">
<path id="Stroke 1" d="M17.8877 10.8977C19.2827 10.7017 20.3567 9.5057 20.3597 8.0567C20.3597 6.6287 19.3187 5.4447 17.9537 5.2207" stroke="white" stroke-width="1.5" stroke-linecap="round" stroke-linejoin="round"/>
<path id="Stroke 3" d="M19.7285 14.25C21.0795 14.452 22.0225 14.925 22.0225 15.9C22.0225 16.571 21.5785 17.007 20.8605 17.281" stroke="white" stroke-width="1.5" stroke-linecap="round" stroke-linejoin="round"/>
<path id="Stroke 5" fill-rule="evenodd" clip-rule="evenodd" d="M11.8867 14.6641C8.67273 14.6641 5.92773 15.1511 5.92773 17.0961C5.92773 19.0401 8.65573 19.5411 11.8867 19.5411C15.1007 19.5411 17.8447 19.0591 17.8447 17.1131C17.8447 15.1671 15.1177 14.6641 11.8867 14.6641Z" stroke="white" stroke-width="1.5" stroke-linecap="round" stroke-linejoin="round"/>
<path id="Stroke 7" fill-rule="evenodd" clip-rule="evenodd" d="M11.8869 11.888C13.9959 11.888 15.7059 10.179 15.7059 8.069C15.7059 5.96 13.9959 4.25 11.8869 4.25C9.7779 4.25 8.0679 5.96 8.0679 8.069C8.0599 10.171 9.7569 11.881 11.8589 11.888H11.8869Z" stroke="white" stroke-width="1.5" stroke-linecap="round" stroke-linejoin="round"/>
<path id="Stroke 9" d="M5.88484 10.8977C4.48884 10.7017 3.41584 9.5057 3.41284 8.0567C3.41284 6.6287 4.45384 5.4447 5.81884 5.2207" stroke="white" stroke-width="1.5" stroke-linecap="round" stroke-linejoin="round"/>
<path id="Stroke 11" d="M4.044 14.25C2.693 14.452 1.75 14.925 1.75 15.9C1.75 16.571 2.194 17.007 2.912 17.281" stroke="white" stroke-width="1.5" stroke-linecap="round" stroke-linejoin="round"/>
</g>
</g>
</svg>
